DataType=double
version=3
OpenSimVersion=4.5-2024-01-10-34fd6af
endheader
time	pelvis_tilt	pelvis_list	pelvis_rotation	pelvis_tx	pelvis_ty	pelvis_tz	hip_flexion_r	hip_adduction_r	hip_rotation_r	knee_angle_r	knee_adduction_r	knee_angle_r_beta	ankle_angle_r	subtalar_angle_r	mtp_angle_r	hip_flexion_l	hip_adduction_l	hip_rotation_l	knee_angle_l	knee_adduction_l	knee_angle_l_beta	ankle_angle_l	subtalar_angle_l	mtp_angle_l	lumbar_extension	lumbar_bending	lumbar_rotation	arm_flex_r	arm_add_r	arm_rot_r	elbow_flex_r	pro_sup_r	wrist_flex_r	wrist_dev_r	arm_flex_l	arm_add_l	arm_rot_l	elbow_flex_l	pro_sup_l	wrist_flex_l	wrist_dev_l
38.86	-0.1145293819944872	-0.1363887218714986	0.1210571317446703	1.078866035338415	0.9322848899113931	0.4840543466063004	0.03098549872602918	6.36796661439904	0.1245797261289398	0.1886686050832407	0.03879643	0.1886686050832407	0.2220253560785558	-0.537577813686033	-0.1371171281100536	6.917037061262166	6.097512420610016	-6.377761628224434	0.3136302614420885	0.09396746	0.3136302614420885	0.006993599641559239	-0.06746629309336405	0.004028567229579529	-0.04469304176983056	0.1391527927459807	0.08824385027129063	0.6213223641587368	-0.3314526487091086	-0.232966418820478	1.641316343652582	1.57079633	0	0	-0.3618721612369111	-0.1275070699913628	0.09885794810903803	0.4274240919141654	1.57079633	0	0
38.87	-0.1161468240884755	-0.1314753459622759	0.1172643318179771	1.080056933868713	0.931481652733825	0.4823108264091766	0.02468080703792763	6.361830045684588	0.1268957166144401	0.1969796657102155	0.03879643	0.1969796657102155	0.2360312609119629	-0.5274066823341554	-0.1326779447952856	6.911467464022246	6.105172895939739	-6.375093281800112	0.3286602030397134	0.09396746	0.3286602030397134	-0.002167412676692931	-0.09061189985715937	0.006778564246548871	-0.04159920347974343	0.1339413917949244	0.08764319156129106	0.6353256828790617	-0.3286241491572859	-0.231344374925633	1.665689370847637	1.57079633	0	0	-0.3805944205144963	-0.1274074525348265	0.09935198843088765	0.4290684809174565	1.57079633	0	0
38.88	-0.1175625394906128	-0.1259576067250186	0.1136206421783842	1.081294189738971	0.9308298880598797	0.4804419389946009	0.01866554338559145	6.354792871018247	0.1281106202751709	0.2065163304169653	0.03879643	0.2065163304169653	0.249354727830356	-0.5165420238526912	-0.1299303973039685	6.905613280557417	6.113390840899723	-6.37085605726956	0.3442755561555061	0.09396746	0.3442755561555061	-0.01015686555048731	-0.1152356867507567	0.009164612036237954	-0.03877264767421489	0.1281133599322055	0.08668123277958087	0.6471688070143666	-0.325687375387854	-0.2298234770883814	1.688759414988218	1.57079633	0	0	-0.3970720274790761	-0.1272029780733896	0.1006048864301025	0.4302464160575863	1.57079633	0	0
38.89	-0.1188153333726109	-0.1199021553090783	0.1102336604070499	1.082552855999423	0.9303494035033931	0.4784417930578373	0.01316596949817495	6.346856616850728	0.1280031438437436	0.2175358176283037	0.03879643	0.2175358176283037	0.2615428636396937	-0.5050429376166662	-0.1293533253417969	6.899584911574032	6.122114806462211	-6.365372164485087	0.359818644632196	0.09396746	0.359818644632196	-0.0165043164835588	-0.1401884369974128	0.01090031583502763	-0.03621220854408868	0.1217484813187864	0.08533233465769169	0.6565954603223704	-0.3227592647784119	-0.2285329606348772	1.710772192830051	1.57079633	0	0	-0.4110716631619672	-0.1269872651394794	0.102967823805852	0.4309191226947806	1.57079633	0	0
38.9	-0.1199348088049895	-0.1133730814070917	0.1071934091791962	1.083810447082514	0.9300566122573263	0.4763079164920655	0.008443672055960694	6.338025791632177	0.126404290093507	0.2303906901961836	0.03879643	0.2303906901961836	0.2721455305263502	-0.4930055218374414	-0.1312363028914124	6.893440741121987	6.131284799610197	-6.359050019066355	0.3747526405282232	0.09396746	0.3747526405282232	-0.02080077104350816	-0.1643892208583419	0.0117805156196468	-0.03392125120657275	0.1149241025876769	0.08359586740883752	0.6633546025191658	-0.3199546065771544	-0.2275996603245635	1.731959950120733	1.57079633	0	0	-0.4224055403390155	-0.1268643074471976	0.1067318488188208	0.4311107744484465	1.57079633	0	0
38.91	-0.1209424874095222	-0.1064332591826343	0.104566587591461	1.085047442297344	0.9299629709155889	0.4740421601248854	0.004787343444750514	6.328313342512213	0.1232104510767935	0.2455104421541617	0.03879643	0.2455104421541617	0.2807356120568474	-0.4805648150890707	-0.135634585507495	6.887182087413068	6.140832181529966	-6.352356094493667	0.3886564848581626	0.09396746	0.3886564848581626	-0.0227356365638027	-0.1868850446219699	0.01169337413120717	-0.03190367238093513	0.1077153625976877	0.08149130136526668	0.6672155987631636	-0.3173741022099482	-0.227136645049455	1.752517342515366	1.57079633	0	0	-0.4309425890046391	-0.126938698818741	0.1120857899870588	0.4309032060051919	1.57079633	0	0
38.92	-0.1218538945682313	-0.09914652472985395	0.1023927265908073	1.086247239366814	0.9300736316759994	0.4716514684665324	0.002502225866195029	6.317746955183266	0.1183935005939111	0.2633738489208705	0.03879643	0.2633738489208705	0.2869305740787392	-0.4678946163060214	-0.142342745020609	6.880755730658896	6.150679575701995	-6.345780554420085	0.4012129453766543	0.09396746	0.4012129453766543	-0.02212547451058022	-0.2068970073832163	0.01062155383766162	-0.03016051977088314	0.1001959734466617	0.07905049065082066	0.6679849849799908	-0.3150923429092839	-0.227231219617984	1.77257954123151	1.57079633	0	0	-0.4366168545301599	-0.1273054228986214	0.1190757279813854	0.4304302408888639	1.57079633	0	0
38.93	-0.122680837831696	-0.09158000036349306	0.1006826510011065	1.08739562744537	0.9303865148804548	0.4691484421708176	0.001897207599397821	6.306375266149834	0.1120071181057995	0.2844739137088586	0.03879643	0.2844739137088586	0.2904143455317179	-0.4552046964814869	-0.1508913623170079	6.874063292359573	6.160741025849557	-6.339799959361505	0.412193264280401	0.09396746	0.412193264280401	-0.01893127298133518	-0.2238506224695743	0.008633176334297213	-0.0286883207446912	0.09243894090131094	0.07630847626612836	0.6655227452588844	-0.3131472938821596	-0.2279341505859198	1.792205505807533	1.57079633	0	0	-0.4394319000198648	-0.1280406880712219	0.1275732082212335	0.4298715857362272	1.57079633	0	0
38.94	-0.1234332449758271	-0.08380589255863963	0.0994193607115115	1.088479935517706	0.9308919556155733	0.4665515927740306	0.003269911553060389	6.294272933338485	0.1041886597070369	0.3092779923823558	0.03879643	0.3092779923823558	0.2909582152189635	-0.4427348938665083	-0.1605692761713026	6.866975914168677	6.170922684917834	-6.33484072436066	0.4214415684549309	0.09396746	0.4214415684549309	-0.01326228618239694	-0.2373894941003853	0.005864489439113428	-0.02747961258886103	0.08451679306075403	0.07329454956154086	0.6597557944989312	-0.3115329372944791	-0.2292520951394013	1.811368668631248	1.57079633	0	0	-0.4394602812557092	-0.1291953184320117	0.1372599918794427	0.4294458106028293	1.57079633	0	0
38.95	-0.1241201454077386	-0.0759021707866266	0.09856116493888487	1.089488076055113	0.9315729977668131	0.4638851679797829	0.006890514467239761	6.281543482511418	0.09515601158547361	0.3381863179312172	0.03879643	0.3381863179312172	0.2884392336826581	-0.4307456724857551	-0.1704714851361682	6.859352102575797	6.181124361558243	-6.331246967250285	0.4288615390699948	0.09396746	0.4288615390699948	-0.005366027402655182	-0.2473729903639002	0.002497072312066353	-0.02652548348673814	0.07650113709637815	0.07002544837252279	0.6506864918897309	-0.3101964969774568	-0.2311449730275551	1.829956107672978	1.57079633	0	0	-0.4368375419537726	-0.130792012070789	0.147636251908484	0.4294016457890463	1.57079633	0	0
38.96	-0.1247495685708725	-0.06795167044487434	0.09804673708712691	1.090407716617828	0.9324063123171241	0.4611784236779611	0.01298544679735908	6.26831897128221	0.08519897440789594	0.3714927577406373	0.03879643	0.3714927577406373	0.282854657267623	-0.4195049719498882	-0.1795700609504156	6.851056309619158	6.191242290527606	-6.329255890991286	0.4344069318042998	0.09396746	0.4344069318042998	0.004394438133035083	-0.2538597874823451	-0.001267128638588157	-0.02581946922441162	0.06846157071681684	0.06650212616013224	0.6383945645086877	-0.3090410528715028	-0.2335293254743447	1.847776099256297	1.57079633	0	0	-0.4317507166960947	-0.1328272276565004	0.158056307941908	0.430006814727364	1.57079633	0	0
38.97	-0.125327289760691	-0.06003947221915935	0.09780170107037195	1.091225765665652	0.933363634444932	0.4584642682193615	0.02172236920177961	6.254755958037703	0.07466494322051893	0.4093517647672129	0.03879643	0.4093517647672129	0.2743310726626397	-0.4092716634136883	-0.1868026365376699	6.841975841524659	6.201173345358746	-6.328982905029409	0.438076472101151	0.09396746	0.438076472101151	0.01557331564777581	-0.2570800543576491	-0.005229662237190535	-0.02536199494424406	0.06046416795297933	0.06271054297547078	0.6230318804665662	-0.3079334542760411	-0.2362875774302698	1.864572779895335	1.57079633	0	0	-0.4244220479188016	-0.1352775219081894	0.1677910146029417	0.4315339435901142	1.57079633	0	0
38.98	-0.1258545713707133	-0.05224896446556389	0.09774629126416894	1.091928274632971	0.9344135755212762	0.4557773220940204	0.03319774468989567	6.241028090004709	0.0639391619753549	0.4517545652225941	0.03879643	0.4517545652225941	0.2631267147268814	-0.400276654615111	-0.1911705269117538	6.832034041081389	6.210820417338259	-6.330417469160655	0.4399124540924733	0.09396746	0.4399124540924733	0.0276812390878528	-0.2573995355296391	-0.009215531726352567	-0.02516454187596941	0.05257000577016999	0.05862576902366952	0.6048109650840009	-0.3067165045716022	-0.2392818023548453	1.880045379275563	1.57079633	0	0	-0.4150894062764759	-0.1381089971066682	0.1761093248441803	0.4342436430871924	1.57079633	0	0
38.99	-0.1263253880411663	-0.04465755019251755	0.0978034191692987	1.092500774410391	0.9355236634871403	0.4531515852384949	0.04742807226900131	6.227316498313882	0.05342067438902377	0.4985159564924452	0.03879643	0.4985159564924452	0.2496253390769984	-0.3927034429695871	-0.1918367029818679	6.821198345500861	6.220098049373757	-6.333429468255356	0.4400012666139134	0.09396746	0.4400012666139134	0.0402262343315091	-0.2552789291518858	-0.01308726066582106	-0.02525266165986444	0.0448343692141425	0.05421795685268688	0.5839894302676922	-0.3052237083104107	-0.2423695696975272	1.89386855243245	1.57079633	0	0	-0.4039855308352538	-0.1412875450971262	0.182365534647621	0.4383654750460965	1.57079633	0	0
39	-0.1267239968216813	-0.03733312214614704	0.09790613973412707	1.092929007559794	0.9366624617471216	0.4506180143430809	0.06434570710891119	6.213799607828562	0.04349603703032492	0.5492716731706796	0.03879643	0.5492716731706796	0.2343203986208704	-0.3866703771749482	-0.1882130151150179	6.809482680310709	6.228937073435338	-6.337785088961441	0.4384734597660386	0.09396746	0.4384734597660386	0.05275187914912982	-0.2512318669038172	-0.01675207864342874	-0.02566684616642352	0.03730714216256394	0.04945880607665455	0.5608529270112409	-0.3032946507169146	-0.2454191904038845	1.905710440811927	1.57079633	0	0	-0.3913184843512343	-0.1447873098715999	0.1860763803024456	0.4440780912812191	1.57079633	0	0
